HIERARCHY
ROOT pelvis
{
  OFFSET 0 100 0
  CHANNELS 6 Xposition Yposition Zposition Zrotation Xrotation Yrotation
  JOINT pelvis_right_femur
  {
    OFFSET -10.78128 -3.44521 -0.5502486
    CHANNELS 3 Zrotation Xrotation Yrotation
    JOINT right_femur_tibia
    {
      OFFSET -0.8047443 -44.0398 -0.1307829
      CHANNELS 3 Zrotation Xrotation Yrotation
      JOINT right_tibia_foot
      {
        OFFSET 3.006224 -47.83518 -5
        CHANNELS 3 Zrotation Xrotation Yrotation
        End Site
        {
          OFFSET 0 -5 15
        }
      }
    }
  }
  JOINT pelvis_left_femur
  {
    OFFSET 10.78128 -3.44521 -0.5502486
    CHANNELS 3 Zrotation Xrotation Yrotation
    JOINT left_femur_tibia
    {
      OFFSET 0.8047443 -44.0398 -0.1307829
      CHANNELS 3 Zrotation Xrotation Yrotation
      JOINT left_tibia_foot
      {
        OFFSET -4.370144 -48.10324 -4.275266
        CHANNELS 3 Zrotation Xrotation Yrotation
        End Site
        {
          OFFSET 0 -5 15
        }
      }
    }
  }
  JOINT pelvis_spine1
  {
    OFFSET 0 6.468898 -3.129235
    CHANNELS 3 Zrotation Xrotation Yrotation
    JOINT spine1
    {
      OFFSET 0 23.15396 4.99043
      CHANNELS 3 Zrotation Xrotation Yrotation
      JOINT spine2
      {
        OFFSET 0 20.79997 -5.064912
        CHANNELS 3 Zrotation Xrotation Yrotation
        JOINT neck
        {
          OFFSET 0 14.38658 9.616178
          CHANNELS 3 Zrotation Xrotation Yrotation
          End Site
          {
            OFFSET 0 20 0
          }
        }
      }
      JOINT right_manubrium
      {
        OFFSET -5.722621 16.35077 3.967754
        CHANNELS 3 Zrotation Xrotation Yrotation
        JOINT right_clavicle
        {
          OFFSET -13.16364 1.694482 -4.693211
          CHANNELS 3 Zrotation Xrotation Yrotation
          JOINT right_humerus
          {
            OFFSET -28.5034 -0.3100689 -2.792744
            CHANNELS 3 Zrotation Xrotation Yrotation
            JOINT right_radius
            {
              OFFSET -25.15693 0.02248979 -1.271978
              CHANNELS 3 Zrotation Xrotation Yrotation
              End Site
              {
                OFFSET -15 0 0
              }
            }
          }
        }
      }
      JOINT left_manubrium
      {
        OFFSET 5.722621 16.35077 3.967754
        CHANNELS 3 Zrotation Xrotation Yrotation
        JOINT left_clavicle
        {
          OFFSET 13.16364 1.694482 -4.693211
          CHANNELS 3 Zrotation Xrotation Yrotation
          JOINT left_humerus
          {
            OFFSET 29.39168 -1.063119 -2.237045
            CHANNELS 3 Zrotation Xrotation Yrotation
            JOINT left_radius
            {
              OFFSET 24.59957 -0.9528479 0.9047498
              CHANNELS 3 Zrotation Xrotation Yrotation
              End Site
              {
                OFFSET 15 -0 -0
              }
            }
          }
        }
      }
    }
  }
}
MOTION
Frames: 15
Frame Time: 0.0416666666667
-729.7183 98.07704 2678.954 -0.8177214 0.9675192 -32.91766 6.344878 -29.45165 -2.910495 -0 11.36542 -0 -10.17849 5.325346 0.895348 -5.099836 15.5369 -8.090559 -0 31.1885 -0 1.451124 -14.77142 10.76659 -3.036744 -1.110404 3.638281 -0.7601158 11.64804 -5.982749 0.6042224 22.09085 8.037254 6.95943 -18.61245 5.886196 4.209415 -19.12989 11.90092 87.10594 34.08168 -14.91482 -0 0 15.88208 -19.95728 8.385501 7.979181 8.466764 -23.09176 -4.692264 -87.57041 10.61238 13.45803 0 0 -13.29295 16.06404 13.67079 -10.59165
-733.5457 99.1442 2684.62 -1.367907 2.341199 -32.93753 8.323365 -25.7452 0.6433597 -0 14.47736 -0 -9.734914 3.145883 -0.4513232 -3.881413 12.24823 -7.724712 -0 40.32402 -0 -0.43084 -10.11548 9.702912 -2.827003 -1.067749 3.883757 -0.909672 11.66076 -5.73931 0.5582893 22.12497 7.964619 7.047264 -18.27238 5.64433 4.141696 -19.28876 11.91166 86.81927 33.7196 -14.36272 -0 0 16.37329 -20.40078 8.429001 8.076476 8.235074 -22.98259 -4.778481 -88.39526 10.45921 14.91995 0 0 -11.14857 15.62664 13.95343 -9.949833
-737.2735 100.6359 2690.209 -1.779488 2.645538 -33.49356 9.182493 -21.93235 3.487896 -0 15.44611 -0 -8.88899 1.11951 -1.616217 -3.102257 8.464071 -7.438882 -0 49.57935 -0 -1.137997 -5.743737 9.916562 -2.607325 -1.109777 4.277541 -1.025669 11.65036 -5.500629 0.4551429 22.09613 7.8926 7.133394 -17.95633 5.34001 4.02336 -19.6635 11.93536 86.43481 33.25035 -13.68999 -0 0 17.20759 -20.81893 8.395769 8.178933 7.928069 -22.90398 -4.82918 -89.4766 10.20609 16.97573 0 0 -8.610256 15.00987 14.18608 -9.075655
-740.9464 102.3151 2695.558 -2.434702 0.5901542 -34.43335 8.633396 -16.30061 4.463047 -0 15.17636 -0 -8.416567 -1.132497 -2.836008 -3.001701 4.518166 -6.744033 -0 58.88446 -0 -1.418207 -3.400257 11.48747 -2.38074 -1.284848 4.867559 -1.02926 11.65996 -5.385465 0.2352022 21.92122 7.821174 7.230933 -17.74145 4.887165 3.780886 -20.38108 11.98187 86.0834 32.50137 -13.13872 -0 0 18.45982 -21.11196 8.198244 8.169954 7.563634 -23.07134 -4.947576 -90.71703 9.665241 19.61589 0 0 -6.178733 14.25064 14.21313 -8.028276
-744.4509 104.0349 2700.467 -3.163666 -2.583887 -35.50914 7.261031 -8.756561 4.478496 -0 14.34164 -0 -7.66431 -3.742088 -3.803305 -3.035877 -1.262577 -6.13672 -0 64.76042 -0 -2.130162 -3.284077 13.61664 -2.106141 -1.617417 5.7352 -0.8759548 11.71725 -5.409924 -0.1618763 21.55068 7.74727 7.311125 -17.57478 4.229512 3.37312 -21.57689 12.068 85.799 31.35331 -12.75008 -0 0 20.19123 -21.28224 7.832551 8.101251 7.049577 -23.55241 -5.242678 -92.16024 8.749575 23.21532 0 0 -3.928009 13.23186 13.86248 -6.541226
-747.7591 105.366 2704.99 -3.55035 -5.082477 -36.47758 5.725845 -1.722476 4.080351 -0 12.61782 -0 -6.256784 -6.366557 -3.802594 -2.527747 -8.207503 -5.995165 -0 63.35035 -0 -3.730144 -4.484096 15.20922 -1.80775 -2.119297 6.856387 -0.5444422 11.8029 -5.520936 -0.7368959 21.01048 7.679249 7.255349 -17.36793 3.48062 2.850615 -23.28684 12.1959 85.51307 29.97702 -12.37109 -0 0 22.2866 -21.3125 7.374767 8.248384 6.286192 -24.17027 -5.725355 -93.68242 7.592722 27.88634 0 0 -2.191656 11.92213 12.95094 -4.380318
-750.9355 106.0082 2709.291 -3.527321 -5.958146 -37.25521 4.820624 3.605656 3.424459 -0 10.84571 -0 -5.271398 -9.269892 -2.989849 -1.336094 -14.72165 -5.632977 -0 55.5285 -0 -5.105394 -5.61268 16.37108 -1.591817 -2.706797 7.943017 -0.1428654 11.84676 -5.562585 -1.321758 20.4893 7.614285 6.95155 -17.06422 2.939839 2.371621 -25.19517 12.31576 85.06586 28.83976 -11.63618 -0 0 24.35033 -21.27528 6.990046 8.978957 5.353936 -24.46449 -6.21842 -94.93001 6.606506 32.77604 0 0 -1.374634 10.61629 11.65915 -1.878081
-754.0128 105.9466 2713.496 -3.354038 -5.538263 -37.919 4.758731 7.832918 2.887527 -0 9.309561 -0 -5.106598 -12.21053 -2.226692 0.3281789 -20.22638 -4.514229 -0 44.83413 -0 -5.043927 -5.950445 17.47105 -1.504758 -3.26338 8.742782 0.1884675 11.80725 -5.447064 -1.739183 20.13633 7.522595 6.439559 -16.74026 2.746477 2.003973 -26.92324 12.36656 84.4161 28.11184 -10.40231 -0 0 26.14593 -21.28666 6.769069 10.27736 4.464688 -24.21178 -6.524949 -95.75883 6.061452 36.90468 0 0 -1.322246 9.570399 10.44015 0.4079666
-757.0211 105.3146 2717.767 -3.153474 -4.40192 -38.52609 5.092535 11.32834 2.439703 -0 8.131259 -0 -5.388303 -14.72934 -1.56004 2.195149 -24.59914 -2.949666 -0 33.23612 -0 -3.814974 -5.609414 18.15433 -1.4924 -3.677515 9.188672 0.3706118 11.71686 -5.198598 -1.920649 19.97998 7.384701 5.874538 -16.49687 2.820225 1.726743 -28.20688 12.33331 83.71087 27.65059 -8.921268 -0 0 27.53912 -21.41895 6.731532 11.75391 3.794385 -23.57898 -6.612262 -96.25276 5.958589 39.73755 0 0 -1.550258 8.840489 9.631736 2.121366
-760.0502 104.3501 2722.351 -2.945465 -3.008636 -39.11309 5.294048 14.12635 2.080748 -0 8.039964 -0 -5.495168 -16.5871 -0.808173 3.768283 -27.37349 -1.516935 -0 22.35342 -0 -2.280976 -4.897204 18.2414 -1.484244 -3.850056 9.288035 0.3287804 11.60875 -4.776363 -1.833509 20.05603 7.203748 5.40018 -16.32786 3.075929 1.529035 -28.86153 12.22989 83.02303 27.30958 -7.33293 -0 0 28.37138 -21.81522 6.905145 13.13047 3.427038 -22.72294 -6.532435 -96.58362 6.268709 41.08916 0 0 -1.472197 8.401533 9.437026 3.118198
-763.242 103.3009 2727.448 -2.81287 -2.057157 -39.74242 4.88316 16.58242 1.856756 -0 9.579034 -0 -5.149148 -17.70753 -0.2013648 4.131371 -28.05772 -1.278494 -0 14.55958 -0 -1.559496 -4.492089 18.36436 -1.447171 -3.782555 9.128553 0.09535854 11.51668 -4.2254 -1.53399 20.32804 7.004139 5.089349 -16.20534 3.415119 1.412016 -28.91342 12.1004 82.42427 26.97818 -5.838542 -0 0 28.61359 -22.44882 7.248442 14.21731 3.338145 -21.83945 -6.383884 -96.86567 6.87198 41.17071 0 0 -0.8961505 8.195525 9.805223 3.469844
-766.678 102.3023 2732.995 -2.819714 -2.158822 -40.484 3.695663 19.28399 1.379027 -0 12.03043 -0 -4.976548 -17.71782 0.176877 2.801575 -27.07733 -3.218582 -0 11.00293 -0 -2.368813 -5.152966 19.34133 -1.383874 -3.594645 8.870898 -0.1788385 11.48421 -3.724677 -1.181337 20.6491 6.82072 4.926777 -16.11623 3.712277 1.370158 -28.63949 12.00265 82.02203 26.62299 -4.749597 -0 0 28.46094 -23.06867 7.648946 14.90252 3.399241 -21.16622 -6.281576 -97.09209 7.514716 40.59389 0 0 -0.1586986 8.148981 10.40766 3.443587
-770.3417 101.4833 2738.795 -3.025243 -3.239435 -41.29966 2.080785 21.73138 0.5358061 -0 15.51997 -0 -5.736063 -15.30894 0.6717807 0.5562276 -24.9926 -6.59661 -0 10.73317 -0 -3.780639 -6.363973 20.79082 -1.323488 -3.359605 8.58633 -0.4362214 11.47622 -3.325959 -0.8567018 20.96588 6.688857 4.883471 -16.03864 3.944571 1.391751 -28.18669 11.94076 81.78939 26.35245 -4.07105 -0 0 28.04459 -23.58918 8.000845 15.25482 3.536733 -20.70883 -6.222106 -97.23312 8.095991 39.70657 -0 0 0.5574422 8.221881 11.05788 3.190812
-774.1811 101.1088 2744.763 -3.266219 -4.571311 -41.97102 0.5258347 22.5998 -0.08933569 -0 21.51952 -0 -7.286361 -9.638738 1.428809 -1.552536 -22.12071 -9.49993 -0 12.42277 -0 -4.189156 -6.926024 21.55366 -1.296819 -3.053474 8.238399 -0.7216004 11.41306 -2.953358 -0.5356435 21.34106 6.629132 4.956469 -15.93416 4.167731 1.479476 -27.47711 11.88436 81.62388 26.30695 -3.60823 -0 0 27.30424 -24.09227 8.249461 15.39123 3.761499 -20.31845 -6.13596 -97.26938 8.699478 38.42751 -0 0 1.342142 8.418605 11.79992 2.689411
-778.0782 101.3778 2750.796 -3.331814 -5.619401 -42.25427 -0.6130166 21.35684 -0.1024105 -0 29.91924 -0 -8.890086 -2.066334 2.096607 -3.199196 -18.91989 -11.05024 -0 14.89171 -0 -3.253069 -6.888787 21.32044 -1.300209 -2.643088 7.78634 -1.051087 11.30565 -2.594941 -0.1961883 21.79863 6.630478 5.143635 -15.77205 4.394104 1.660385 -26.44353 11.83283 81.52647 26.52063 -3.359412 -0 0 26.15682 -24.57842 8.43684 15.30594 4.083136 -19.97017 -6.034002 -97.1424 9.36525 36.61243 -0 0 2.153681 8.783557 12.67095 1.889359
